<svg enable-background="new 0 0 803.3 249.5" height="249.5" viewBox="0 0 803.3 249.5" width="803.3" xmlns="http://www.w3.org/2000/svg"><path d="m590.2 17c0-9.7 8-17 17.7-17 8 0 13.7 5.5 13.7 13.4 0 9.5-8.4 16.6-17.9 16.6-8 0-13.5-5.4-13.5-13z" fill="#fff"/><path d="m93 96.9h55v55h-55z" fill="#935d97"/><path d="m54.3 151.9-38.1 38.3 38.8 38.9 38-37.6v53.4h55v-93h-55v-55h-93v55z" fill="#ff1f3d"/><path d="m186.8 96.9 38-37.7-38.8-38.7-38 37.9v-53.5h-55v92h55v55h93v-55z" fill="#279af0"/><g fill="#fff"><path d="m293.1 40.3 3.4-24.4h27.5l-3.4 24.4h17.9l-3.1 21.2h-17.9l-4.2 30.3c-.6 4.4 1.1 7.1 6.1 7.1 4 0 7.4-2.3 7.4-2.3l4.8 18.7c-5.3 3.8-14.7 7.1-23.1 7.1-19.7 0-25.2-12.6-22.9-29.2l4.4-31.7h-13.2l3.1-21.2z"/><path d="m392.9 63.5h-4.2c-10.1 0-17.7 6.7-19.3 18.1l-5.5 38.7h-27.5l11.3-80.1h16.6l2.9 10.9h1.1c5.5-7.4 13-10.9 23.7-10.9h4.2z"/><path d="m461 50.6 5.9-10.3h17.9l-11.3 80.1h-17.9l-3.1-10.3h-1.1s-7.6 12.2-25.8 12.2c-19.1 0-31.9-13.5-31.9-35.3 0-28.4 19.8-48.6 43.5-48.6 18.3 0 22.5 12.2 22.5 12.2zm-20.6 10.3c-10.7 0-18.5 9.5-18.5 22.7 0 9.5 4.8 16.2 13 16.2 11.1 0 18.7-9.7 18.7-23.3-.1-9.5-4.9-15.6-13.2-15.6z"/><path d="m548 47.5 6.1-42.5h27.5l-16.2 115.4h-17.9l-3.1-10.3h-1.1s-7.6 12.2-25.8 12.2c-19.1 0-31.9-13.5-31.9-35.3 0-28.2 19.5-48.6 42.7-48.6 15.3 0 18.5 9.2 18.5 9.2h1.2zm-15.9 13.4c-10.7 0-18.5 9.5-18.5 22.7 0 9.5 4.8 16.2 13 16.2 11.1 0 18.7-9.7 18.7-23.3 0-9.5-4.8-15.6-13.2-15.6z"/><path d="m588.3 40.3h27.5l-11.3 80.1h-27.5z"/><path d="m312.2 212.5-5.2 37h-27.5l15.5-109.9h17.4l2.7 10.9h1.1s8-12.8 26.7-12.8c18.9 0 31.9 13.5 31.9 35.1 0 28.4-19.5 48.8-42.5 48.8-15.6 0-18.9-9.2-18.9-9.2h-1.2zm16-13.4c10.7 0 18.5-9.5 18.5-22.7 0-9.5-4.8-16.2-13-16.2-11.1 0-18.5 9.7-18.5 23.3 0 9.5 4.6 15.6 13 15.6z"/><path d="m446.1 149.9 5.9-10.3h17.9l-11.3 80.1h-17.9l-3.1-10.3h-1.1s-7.6 12.2-25.8 12.2c-19.1 0-31.9-13.5-31.9-35.3 0-28.4 19.8-48.6 43.5-48.6 18.3 0 22.5 12.2 22.5 12.2zm-20.7 10.3c-10.7 0-18.5 9.5-18.5 22.7 0 9.5 4.8 16.2 13 16.2 11.1 0 18.7-9.7 18.7-23.3 0-9.5-4.8-15.6-13.2-15.6z"/><path d="m469 218.9h27.5l11.3-80h-27.5z"/><path d="m516.6 139.6h16.6l2.9 10.9h1.3c7.8-9.2 14.9-13 27.1-13 20.4 0 31.5 13.5 28.4 35.1l-6.7 47.1h-27.5l6.3-45c1-7.3-3.1-13-11.1-13-7.4 0-13.4 5.2-14.7 12l-6.5 46h-27.5z"/><path d="m676.6 36.9c-12.2 0-19.3 5.1-27.1 13.1h-1.3l-2.9-10h-16.6l-10 72.8-3.4 25.2h-13.2l-3.1 22h13.2l-4.4 32.5c-2.3 17.2 3.2 30.1 22.9 30.1 8.4 0 17.7-3.4 23.1-7.4l-4.8-19.4s-3.4 2.4-7.4 2.4c-5 0-6.7-2.5-6.1-7l4.2-31.1h17.9l3.1-22h-17.9l2-15.3 6.7-47.7c1.3-7.1 7.3-12.5 14.7-12.5 8 0 12 5.7 11.1 13.2l-6.3 46.4h27.5l6.7-48.8c2.9-22.5-8.2-36.5-28.6-36.5z"/><path d="m786.1 38.9-5.9 12h-1s-4-14-22.9-14c-23.8 0-43.7 20-43.7 50.6 0 22.2 12.4 37.4 30.9 37.4 15.5 0 21.2-10 21.2-10h1.1l-.4 3.2c-1.5 12.2-7.8 18.8-18.3 18.8-8.8 0-24.3-.8-24.3-.8-5.1-1-11.5-1.8-19.1-1.8-23.8 0-37.2 13-37.2 30.2 0 28 37.2 22.4 37.2 32.2 0 2.8-2.5 5.4-10.1 5.4-12.6 0-24.2-8.2-24.2-8.2l-10.7 19.6s9.5 8.8 34.3 8.8c28.6 0 40.4-13.4 40.4-30.6 0-28.4-38.2-22-38.2-31.6 0-3.4 3.2-5.2 9-5.2 13.9 0 36.2 3.8 40.5 3.8 28.6 0 44.8-17.6 48.1-41.4l10.5-78.4zm-32.5 62.5c-8.2 0-13.2-6.8-13.2-16.6 0-13.6 7.8-24.2 18.5-24.2 8.6 0 13.2 6.6 13.2 16.8 0 14.2-7.4 24-18.5 24z"/></g></svg>